<?xml version="1.0"?>
<svg xmlns="http://www.w3.org/2000/svg" xmlns:xlink="http://www.w3.org/1999/xlink" xmlns:svgjs="http://svgjs.com/svgjs" version="1.1" width="512" height="512" x="0" y="0" viewBox="0 0 64 64" style="enable-background:new 0 0 512 512" xml:space="preserve" class=""><g><g xmlns="http://www.w3.org/2000/svg" id="Layer_28" data-name="Layer 28"><path d="m46 30.31a14 14 0 1 0 -21.83 11.69 7.7 7.7 0 0 0 -.09 1.1 7.92 7.92 0 1 0 15.84 0 7.7 7.7 0 0 0 -.09-1.1 13.93 13.93 0 0 0 6.17-11.69zm-7.79 10.32a1 1 0 0 0 -.15.14.83.83 0 0 0 -.27.66 1 1 0 0 0 0 .21s0 0 0 .05a5.31 5.31 0 0 1 .16 1.33 5.92 5.92 0 0 1 -4.95 5.87v-9.37l5.3-5.3a1 1 0 0 0 -1.41-1.41l-3.89 3.88v-3.17a1 1 0 0 0 -2 0v3.18l-3.88-3.88a1 1 0 0 0 -1.41 1.41l5.3 5.3v9.37a5.92 5.92 0 0 1 -4.92-5.83 5.31 5.31 0 0 1 .16-1.33s0 0 0-.05a1 1 0 0 0 0-.21.83.83 0 0 0 -.25-.68 1 1 0 0 0 -.15-.14 12 12 0 1 1 12.43 0z" fill="#23d997" data-original="#000000" style=""/><path d="m37.5 52.54h-11a1 1 0 0 0 0 2h11a1 1 0 0 0 0-2z" fill="#23d997" data-original="#000000" style=""/><path d="m35.79 55.77h-7.58a1 1 0 0 0 0 2h7.57a1 1 0 0 0 0-2z" fill="#23d997" data-original="#000000" style=""/><path d="m34.14 59h-4.28a1 1 0 0 0 0 2h4.29a1 1 0 0 0 0-2z" fill="#23d997" data-original="#000000" style=""/><path d="m32 11a1 1 0 0 0 1-1v-6a1 1 0 0 0 -2 0v6a1 1 0 0 0 1 1z" fill="#23d997" data-original="#000000" style=""/><path d="m45.69 16.7a1 1 0 0 0 .71-.29l4.26-4.26a1 1 0 0 0 -1.41-1.41l-4.25 4.26a1 1 0 0 0 .71 1.71z" fill="#23d997" data-original="#000000" style=""/><path d="m57.39 28.39h-6a1 1 0 0 0 0 2h6a1 1 0 0 0 0-2z" fill="#23d997" data-original="#000000" style=""/><path d="m46.4 42.37a1 1 0 0 0 -1.4 1.42l4.25 4.21a1 1 0 0 0 1.41-1.41z" fill="#23d997" data-original="#000000" style=""/><path d="m17.6 42.37-4.26 4.26a1 1 0 1 0 1.41 1.37l4.25-4.21a1 1 0 0 0 -1.41-1.41z" fill="#23d997" data-original="#000000" style=""/><path d="m13.64 29.39a1 1 0 0 0 -1-1h-6a1 1 0 1 0 0 2h6a1 1 0 0 0 1-1z" fill="#23d997" data-original="#000000" style=""/><path d="m17.6 16.41a1 1 0 1 0 1.4-1.41l-4.26-4.26a1 1 0 0 0 -1.41 1.41z" fill="#23d997" data-original="#000000" style=""/></g></g></svg>
