<?xml version="1.0"?>
<svg xmlns="http://www.w3.org/2000/svg" xmlns:xlink="http://www.w3.org/1999/xlink" xmlns:svgjs="http://svgjs.com/svgjs" version="1.1" width="512" height="512" x="0" y="0" viewBox="0 0 512.00088 512" style="enable-background:new 0 0 512 512" xml:space="preserve" class=""><g><path xmlns="http://www.w3.org/2000/svg" d="m506.585938 430.21875-93.316407-93.316406c-6.71875-6.71875-17.351562-7.175782-24.617187-1.390625l-28.382813-28.386719c21.285157-31.457031 33.730469-69.367188 33.730469-110.125 0-36.0625-9.835938-71.339844-28.441406-102.019531-2.867188-4.722657-9.015625-6.226563-13.738282-3.367188-4.722656 2.867188-6.226562 9.015625-3.363281 13.738281 16.710938 27.554688 25.542969 59.246094 25.542969 91.648438 0 48.097656-19.292969 91.765625-50.535156 123.699219l-2.765625 2.765625c-31.933594 31.242187-75.601563 50.535156-123.699219 50.535156-97.597656 0-177-79.402344-177-177s79.402344-177 177-177c32.402344 0 64.097656 8.832031 91.652344 25.546875 4.71875 2.863281 10.871094 1.355469 13.734375-3.367187 2.863281-4.71875 1.355469-10.871094-3.363281-13.734376-30.679688-18.609374-65.960938-28.445312-102.023438-28.445312-108.625 0-197 88.375-197 197s88.375 197 197 197c40.757812 0 78.667969-12.445312 110.125-33.730469l28.386719 28.382813c-5.785157 7.265625-5.328125 17.898437 1.390625 24.617187l93.316406 93.316407c3.609375 3.609374 8.351562 5.414062 13.09375 5.414062s9.484375-1.804688 13.097656-5.414062l50.175782-50.175782c7.21875-7.222656 7.21875-18.972656 0-26.191406zm-180.167969-84.824219c6.820312-5.953125 13.226562-12.363281 19.167969-19.191406l3.066406-2.40625 25.769531 25.765625-24.859375 24.859375-25.769531-25.769531zm116.894531 146.003907-91.222656-91.222657 48.085937-48.082031 91.21875 91.21875zm0 0" fill="#23d997" data-original="#000000" style="" class=""/><path xmlns="http://www.w3.org/2000/svg" d="m329.226562 74.765625c2.632813 0 5.210938-1.058594 7.070313-2.921875 1.859375-1.867188 2.929687-4.4375 2.929687-7.070312 0-2.636719-1.066406-5.207032-2.929687-7.078126-1.859375-1.859374-4.4375-2.921874-7.070313-2.921874-2.628906 0-5.207031 1.0625-7.066406 2.921874-1.863281 1.871094-2.933594 4.449219-2.933594 7.078126 0 2.632812 1.070313 5.203124 2.933594 7.070312 1.859375 1.863281 4.4375 2.921875 7.066406 2.921875zm0 0" fill="#23d997" data-original="#000000" style="" class=""/><path xmlns="http://www.w3.org/2000/svg" d="m231.65625 206.769531c25.011719-13.988281 39.132812-41.476562 35.976562-70.035156-3.609374-32.699219-29.964843-59.054687-62.664062-62.664063-20.171875-2.230468-40.347656 4.214844-55.378906 17.679688-14.621094 13.089844-23.238282 31.847656-23.65625 51.460938-.175782 8.382812 3.058594 16.601562 8.871094 22.542968 5.632812 5.761719 13.117187 8.941406 21.074218 8.949219h.042969c16.515625 0 29.96875-13.421875 29.996094-29.941406.003906-1.488281.214843-3.609375 1.210937-5.265625 2.515625-4.195313 6.625-6.308594 11.253906-5.792969 4.851563.539063 9.078126 4.761719 9.613282 9.617187.503906 4.539063-1.703125 8.886719-5.621094 11.078126-21.820312 12.203124-35.378906 34.90625-35.378906 59.253906 0 14.738281 11.992187 26.730468 26.730468 26.730468h6.539063c14.738281 0 26.730469-11.992187 26.730469-26.730468 0-2.71875 1.699218-5.230469 4.660156-6.882813zm-24.660156 6.886719c0 3.710938-3.019532 6.730469-6.730469 6.730469h-6.539063c-3.710937 0-6.726562-3.019531-6.726562-6.730469 0-17.113281 9.632812-33.128906 25.136719-41.800781 10.949219-6.121094 17.125-18.183594 15.742187-30.730469-1.550781-14.015625-13.285156-25.75-27.296875-27.296875-1.183593-.132813-2.363281-.195313-3.53125-.195313-11.027343 0-21.179687 5.757813-27.070312 15.570313-2.683594 4.472656-4.050781 9.691406-4.058594 15.523437-.011719 5.503907-4.496094 9.980469-10 9.980469-.003906 0-.011719 0-.015625 0-3.257812-.003906-5.496094-1.597656-6.800781-2.933593-2.082031-2.128907-3.238281-5.09375-3.175781-8.140626.300781-14.09375 6.496093-27.574218 17-36.984374 10.804687-9.675782 25.320312-14.300782 39.84375-12.699219 23.472656 2.589843 42.390624 21.507812 44.980468 44.984375 2.273438 20.550781-7.878906 40.324218-25.859375 50.378906-9.328125 5.214844-14.898437 14.316406-14.898437 24.34375zm0 0" fill="#23d997" data-original="#000000" style="" class=""/><path xmlns="http://www.w3.org/2000/svg" d="m197 260.375c-16.539062 0-29.996094 13.457031-29.996094 29.996094 0 16.539062 13.457032 29.992187 29.996094 29.992187s29.992188-13.453125 29.992188-29.992187c0-16.539063-13.453126-29.996094-29.992188-29.996094zm0 39.988281c-5.511719 0-9.996094-4.480469-9.996094-9.992187 0-5.515625 4.484375-9.996094 9.996094-9.996094s9.996094 4.484375 9.996094 9.996094c0 5.507812-4.484375 9.992187-9.996094 9.992187zm0 0" fill="#23d997" data-original="#000000" style="" class=""/></g></svg>
